<svg version="1.2" xmlns="http://www.w3.org/2000/svg" viewBox="0 0 64 64" width="64" height="64">
	<title>feedback-svg</title>
	<style>
		.s0 { fill: #000000 } 
	</style>
	<path fill-rule="evenodd" class="s0" d="m63 48c0 0.8-0.3 1.5-0.8 2 0.5 0.5 0.8 1.2 0.8 2 0 0.8-0.3 1.5-0.8 2 0.5 0.5 0.8 1.2 0.8 2 0 0.8-0.3 1.5-0.8 2 0.5 0.5 0.8 1.2 0.8 2 0 1.7-1.3 3-3 3h-15.2l-5-2h-2.8v2h-22v-16.8c-1.2 0.5-2.6 0.8-4 0.8-5.5 0-10-4.5-10-10 0-5.5 4.5-10 10-10 5.5 0 10 4.5 10 10 0 2.3-0.8 4.3-2 6h18v2h2.7l5.6-3.2q1.1-0.6 2-1.5c1.7-1.7 2.7-4.1 2.7-6.6v-1.7c0-1.1 0.9-2 2-2 2.8 0 5 2.2 5 5v0.5c0 3.1-1 6.2-2.9 8.7q-0.1 0.1-0.1 0.3c0 0.3 0.2 0.5 0.5 0.5h5.5c1.7 0 3 1.3 3 3zm-58.2-6c0.8-1 1.8-1.8 2.9-2.3-1-0.9-1.7-2.2-1.7-3.7 0-2.8 2.2-5 5-5 2.8 0 5 2.2 5 5 0 1.5-0.7 2.8-1.7 3.7 1.1 0.5 2.1 1.3 2.9 2.3 1.1-1.4 1.8-3.1 1.8-5 0-4.4-3.6-8-8-8-4.4 0-8 3.6-8 8 0 1.9 0.7 3.6 1.8 5zm6.2-3c1.7 0 3-1.3 3-3 0-1.7-1.3-3-3-3-1.7 0-3 1.3-3 3 0 1.7 1.3 3 3 3zm0 6c1.8 0 3.5-0.6 4.8-1.6-1.1-1.5-2.9-2.4-4.8-2.4-1.9 0-3.7 0.9-4.8 2.4 1.3 1 3 1.6 4.8 1.6zm6 16h14v-16h-14zm18-16h-2v16h2zm26 15c0-0.6-0.4-1-1-1h-5v-2h5c0.6 0 1-0.4 1-1 0-0.6-0.4-1-1-1h-5v-2h5c0.6 0 1-0.4 1-1 0-0.6-0.4-1-1-1h-5v-2h5c0.6 0 1-0.4 1-1 0-0.6-0.4-1-1-1h-5.5c-1.4 0-2.5-1.1-2.5-2.5 0-0.5 0.2-1.1 0.5-1.5 1.6-2.1 2.5-4.8 2.5-7.5v-0.5c0-1.7-1.3-3-3-3v1.7c0 3-1.2 5.9-3.3 8q-1.1 1.1-2.4 1.9l-6 3.4h-3.3v12h3.2l5 2h14.8c0.6 0 1-0.4 1-1z"/>
	<path fill-rule="evenodd" class="s0" d="m43 18c0-5.5 4.5-10 10-10 5.5 0 10 4.5 10 10 0 5.5-4.5 10-10 10-5.5 0-10-4.5-10-10zm10 8c1.8 0 3.5-0.6 4.8-1.6-1.1-1.5-2.9-2.4-4.8-2.4-1.9 0-3.7 0.9-4.8 2.4 1.3 1 3 1.6 4.8 1.6zm-8-8c0 1.9 0.7 3.6 1.8 5 0.8-1 1.8-1.8 2.9-2.3-1-0.9-1.7-2.2-1.7-3.7 0-2.8 2.2-5 5-5 2.8 0 5 2.2 5 5 0 1.5-0.7 2.8-1.7 3.7 1.1 0.5 2.1 1.3 2.9 2.3 1.1-1.4 1.8-3.1 1.8-5 0-4.4-3.6-8-8-8-4.4 0-8 3.6-8 8zm8 2c1.7 0 3-1.3 3-3 0-1.7-1.3-3-3-3-1.7 0-3 1.3-3 3 0 1.7 1.3 3 3 3z"/>
	<path fill-rule="evenodd" class="s0" d="m13 15c0-7.7 6.3-14 14-14 7.7 0 14 6.3 14 14 0 7.7-6.3 14-14 14-7.7 0-14-6.3-14-14zm22.6 8.4c-0.5-1.6-1.3-2.9-2.4-4l-1.6 6.3-4.6-3.5-4.6 3.5-1.6-6.3c-1.1 1.1-1.9 2.4-2.4 4 2.2 2.2 5.2 3.6 8.6 3.6 3.4 0 6.4-1.4 8.6-3.6zm-20.6-8.4c0 2.4 0.7 4.6 1.9 6.5 1.3-2.7 3.5-4.8 6.3-5.8-1.3-1.1-2.2-2.8-2.2-4.7 0-3.3 2.7-6 6-6 3.3 0 6 2.7 6 6 0 1.9-0.9 3.6-2.2 4.7 2.8 1 5 3.1 6.3 5.8 1.2-1.9 1.9-4.1 1.9-6.5 0-6.6-5.4-12-12-12-6.6 0-12 5.4-12 12zm13.9 2.2q-0.9-0.2-1.9-0.2-1 0-1.9 0.2l1.9 2.2zm-0.4 3.7l1.9 1.4 1.1-4.1q-0.3-0.1-0.6-0.3zm-5.8-2.6l1 4.1 1.9-1.5-2.4-2.9q-0.3 0.1-0.5 0.3zm4.4-3.2c2.2 0 4-1.8 4-4 0-2.2-1.8-4-4-4-2.2 0-4 1.8-4 4 0 2.2 1.8 4 4 4z"/>
	<path class="s0" d="m23 31h2v2h-2z"/>
	<path class="s0" d="m27 31h16v2h-16z"/>
	<path class="s0" d="m23 35h20v2h-20z"/>
	<path class="s0" d="m23 39h18v2h-18z"/>
	<path class="s0" d="m19 57h2v2h-2z"/>
	<path class="s0" d="m23 57h2v2h-2z"/>
	<path class="s0" d="m27 57h2v2h-2z"/>
</svg>