<svg version="1.2" xmlns="http://www.w3.org/2000/svg" viewBox="0 0 64 64" width="64" height="64">
	<title>list (2)-svg</title>
	<style>
		.s0 { fill: #000000 } 
	</style>
	<g id="Outline">
		<path class="s0" d="m10 13.6l-1.3-1.3-1.4 1.4 2.7 2.7 4.7-4.7-1.4-1.4-3.3 3.3z"/>
		<path class="s0" d="m18 10h15v2h-15z"/>
		<path class="s0" d="m18 14h15v2h-15z"/>
		<path class="s0" d="m18 34h18v2h-18z"/>
		<path class="s0" d="m18 38h18v2h-18z"/>
		<path class="s0" d="m13.3 33.3l-2.3 2.3-2.3-2.3-1.4 1.4 2.3 2.3-2.3 2.3 1.4 1.4 2.3-2.3 2.3 2.3 1.4-1.4-2.3-2.3 2.3-2.3-1.4-1.4z"/>
		<path class="s0" d="m18 46h17v2h-17z"/>
		<path class="s0" d="m18 50h17v2h-17z"/>
		<path class="s0" d="m13.3 45.3l-2.3 2.3-2.3-2.3-1.4 1.4 2.3 2.3-2.3 2.3 1.4 1.4 2.3-2.3 2.3 2.3 1.4-1.4-2.3-2.3 2.3-2.3-1.4-1.4z"/>
		<path class="s0" d="m10 25.6l-1.3-1.3-1.4 1.4 2.7 2.7 4.7-4.7-1.4-1.4-3.3 3.3z"/>
		<path class="s0" d="m18 22h22v2h-22z"/>
		<path class="s0" d="m18 26h22v2h-22z"/>
		<path fill-rule="evenodd" class="s0" d="m56.4 36.7c1.1 0.4 2.1 1.1 3 1.9 0.8 0.9 1.5 1.9 1.9 3 0.5 1 0.7 2.2 0.7 3.4v17h-24v-2h-36v-58h35.4l10.6 10.6v8.4h2c2 0 4 0.9 5.3 2.4 1.3 1.6 1.9 3.6 1.7 5.6-0.3 2-1.5 3.8-3.2 4.9-1.7 1.1-3.8 1.4-5.8 0.8v1.3h5c1.2 0 2.4 0.2 3.4 0.7zm-5 1.3h-2.8l1.4 2.8zm8.6 7q0-1.3-0.5-2.6-0.4-1.2-1.3-2.2-0.9-0.9-2.1-1.5-1.2-0.6-2.5-0.7l-1.5 3.1 2 13.2-4.1 4.1-4-4.1 2-13.2-1.6-3.1q-1.3 0.1-2.5 0.7-1.1 0.6-2 1.5-0.9 1-1.4 2.2-0.5 1.3-0.5 2.6v15h20zm-8.5-12.3q0.7-0.2 1.3-0.6 0.6-0.4 1.1-1 0.5-0.5 0.7-1.2-0.6-0.7-1.4-1.3-0.7-0.5-1.6-0.9-0.8-0.3-1.7-0.5-0.9-0.2-1.9-0.2h-3v1q0 1 0.4 1.9 0.4 0.9 1.1 1.6 0.7 0.7 1.6 1.1 0.9 0.4 1.9 0.4 0.8 0 1.5-0.3zm3-7q-0.5-0.8-1.1-1.4-0.7-0.7-1.6-1-0.9-0.3-1.8-0.3h-5v2h3q1 0 1.9 0.1 0.9 0.2 1.8 0.5 0.9 0.3 1.7 0.8 0.8 0.5 1.6 1-0.1-0.9-0.5-1.7zm-16.5 32.3v-13q0-1.7 0.6-3.2 0.6-1.6 1.7-2.8 1.1-1.3 2.6-2 1.5-0.8 3.1-1v-2.3q-0.7-0.5-1.2-1.1-0.6-0.7-1-1.4-0.4-0.7-0.6-1.6-0.2-0.8-0.2-1.6v-7h3v-7h-10v-10h-32v54zm0-46h6.6l-6.6-6.6zm12 29.1l-1.9 12.5 1.9 2 2-2z"/>
	</g>
</svg>